<?xml version="1.0" standalone="no"?>
<!DOCTYPE svg PUBLIC "-//W3C//DTD SVG 20010904//EN"
 "http://www.w3.org/TR/2001/REC-SVG-20010904/DTD/svg10.dtd">
<svg version="1.0" xmlns="http://www.w3.org/2000/svg"
 width="357.000000pt" height="400.000000pt" viewBox="0 0 357.000000 400.000000"
 preserveAspectRatio="xMidYMid meet">

<g transform="translate(0.000000,400.000000) scale(0.100000,-0.100000)"
fill="#000000" stroke="none">
<path d="M0 2000 l0 -2000 1785 0 1785 0 0 2000 0 2000 -1785 0 -1785 0 0
-2000z m1786 1729 c226 -31 435 -139 600 -311 88 -91 145 -175 194 -286 61
-137 83 -237 84 -377 l1 -119 -44 -25 c-70 -39 -173 -61 -280 -61 -151 0 -267
42 -407 145 -110 82 -153 99 -228 91 -62 -6 -80 -15 -132 -62 -32 -30 -76
-108 -88 -156 -9 -40 -40 -35 -128 19 -21 13 -42 23 -47 23 -19 0 -33 -73 -29
-149 8 -137 72 -237 186 -293 60 -30 76 -33 157 -33 77 0 98 4 147 27 64 30
139 101 169 160 19 38 41 165 32 181 -3 5 4 4 16 -2 11 -7 21 -18 21 -25 0 -8
7 -16 15 -20 8 -3 26 -30 40 -60 l25 -54 148 5 c117 5 169 2 250 -12 66 -12
102 -23 102 -31 0 -7 -15 -41 -34 -76 -201 -380 -607 -596 -1026 -547 -377 43
-692 278 -839 625 -61 144 -75 214 -75 389 -1 166 8 227 54 359 60 176 199
364 352 477 221 164 496 235 764 198z m-603 -2567 c37 -32 13 -106 -38 -113
-82 -12 -114 103 -36 129 29 10 48 6 74 -16z m631 -13 c25 -19 26 -25 26 -110
0 -49 3 -89 6 -89 3 0 19 11 36 25 37 32 67 39 122 31 54 -8 104 -40 129 -83
22 -38 37 -164 37 -315 l0 -108 -42 0 c-72 0 -78 13 -78 166 0 160 -13 203
-67 229 -31 15 -40 15 -72 3 -61 -23 -71 -56 -71 -246 l0 -164 -42 7 c-79 12
-78 6 -78 361 l0 314 34 0 c19 0 45 -9 60 -21z m-784 -37 c0 -59 -16 -67 -152
-72 l-123 -5 -3 -82 -3 -83 121 0 120 0 0 -28 c0 -57 -18 -67 -129 -70 l-100
-4 -3 -136 -3 -137 -35 2 c-19 1 -45 8 -57 14 l-23 12 0 281 c0 303 3 319 53
329 12 2 93 5 180 6 l157 1 0 -28z m-558 -112 c137 -38 187 -225 75 -279 -33
-16 -65 -20 -150 -22 -59 -1 -109 -4 -111 -8 -3 -4 2 -21 11 -39 24 -49 89
-76 169 -69 35 2 76 12 90 22 32 21 38 15 30 -28 -22 -117 -241 -130 -350 -21
-80 80 -98 212 -42 322 53 105 164 153 278 122z m1135 -9 c44 -21 57 -37 67
-89 4 -25 3 -32 -7 -28 -95 40 -190 44 -227 11 -43 -39 -12 -78 70 -91 126
-19 189 -81 175 -172 -20 -131 -224 -189 -335 -96 -23 20 -30 34 -30 61 0 30
3 34 18 28 51 -22 121 -35 159 -30 50 7 73 27 73 61 0 29 -33 46 -124 63 -78
14 -117 39 -134 83 -20 51 -8 101 34 148 60 67 176 89 261 51z m929 -6 c68
-34 104 -90 104 -162 0 -92 -54 -123 -224 -129 -48 -1 -90 -5 -93 -8 -11 -11
11 -48 44 -74 32 -24 45 -27 112 -27 53 0 86 6 109 18 l32 18 0 -34 c0 -18 -7
-42 -15 -54 -18 -25 -100 -53 -156 -53 -94 0 -198 69 -234 155 -21 50 -23 135
-6 195 42 149 194 221 327 155z m399 -10 c17 -16 25 -35 25 -59 0 -34 -1 -35
-26 -26 -42 16 -81 11 -111 -14 l-28 -24 -5 -179 -5 -178 -35 3 c-78 8 -84 24
-78 234 3 130 5 147 27 185 31 54 86 83 159 83 43 0 58 -5 77 -25z m129 15
c18 -6 28 -21 37 -52 40 -146 94 -288 110 -288 12 0 49 106 76 220 14 58 27
111 29 118 4 15 58 16 85 2 24 -14 24 -46 0 -130 -49 -172 -183 -477 -242
-551 -56 -71 -121 -88 -164 -44 -40 39 -33 62 20 69 54 9 81 40 114 130 l22
60 -25 45 c-54 100 -125 291 -150 404 -6 25 -4 27 28 27 19 0 46 -4 60 -10z
m-1915 -15 c16 -8 31 -22 35 -30 3 -9 6 -83 6 -164 0 -166 7 -186 65 -197 30
-5 35 -10 35 -34 0 -40 -24 -60 -72 -60 -58 0 -103 25 -124 68 -15 31 -18 70
-21 226 -1 104 0 193 3 197 8 13 42 11 73 -6z"/>
<path d="M2219 3052 c-85 -76 20 -209 116 -146 31 20 49 73 36 106 -13 35 -58
68 -92 68 -17 0 -41 -11 -60 -28z"/>
<path d="M339 895 c-24 -13 -38 -37 -54 -92 -6 -22 -5 -23 74 -23 91 0 127 10
136 39 21 68 -80 117 -156 76z"/>
<path d="M2372 894 c-26 -18 -52 -65 -52 -94 0 -19 6 -20 83 -20 93 0 127 15
127 56 0 41 -42 74 -92 74 -24 0 -54 -7 -66 -16z"/>
</g>
</svg>
